PathFileType  4	(X/Y/Z) C:\Users\antoi\Documents\MyRepositories\mobilecap\ResultsAnalysis
DataRate	CameraRate	NumFrames	NumMarkers	Units	OrigDataRate	OrigDataStartFrame	OrigNumFrames
100.0	100.0	4	51	mm	100.0	23	181
Frame#	Time	r_knee			r_shank_antsup			r_ankle			r_calc			r_5meta			r_toe			L_knee			L_shank_antsup			L_ankle			L_calc			L_5meta			L_toe			r_sh2			r_sh3			r_sh4			L_sh2			L_sh3			r_thigh1			r_thigh2			r_thigh3			r_thigh4			r_thigh5			L_thigh1			L_thigh2			L_thigh3			L_thigh4			r.ASIS			r.PSIS			L.ASIS			L.PSIS			C7			R_Shoulder			L_Shoulder			R_Sternum			L_Sternum			R_humerus			R_elbow_med			R_elbow_lat			R_forearm			R_wrist_radius			R_wrist_ulna			L_humerus			L_elbow_med			L_elbow_lat			L_forearm			L_wrist_radius			L_wrist_ulna			R_HJC			L_HJC			R_HJC_reg			L_HJC_reg			
		X1	Y1	Z1	X2	Y2	Z2	X3	Y3	Z3	X4	Y4	Z4	X5	Y5	Z5	X6	Y6	Z6	X7	Y7	Z7	X8	Y8	Z8	X9	Y9	Z9	X10	Y10	Z10	X11	Y11	Z11	X12	Y12	Z12	X13	Y13	Z13	X14	Y14	Z14	X15	Y15	Z15	X16	Y16	Z16	X17	Y17	Z17	X18	Y18	Z18	X19	Y19	Z19	X20	Y20	Z20	X21	Y21	Z21	X22	Y22	Z22	X23	Y23	Z23	X24	Y24	Z24	X25	Y25	Z25	X26	Y26	Z26	X27	Y27	Z27	X28	Y28	Z28	X29	Y29	Z29	X30	Y30	Z30	X31	Y31	Z31	X32	Y32	Z32	X33	Y33	Z33	X34	Y34	Z34	X35	Y35	Z35	X36	Y36	Z36	X37	Y37	Z37	X38	Y38	Z38	X39	Y39	Z39	X40	Y40	Z40	X41	Y41	Z41	X42	Y42	Z42	X43	Y43	Z43	X44	Y44	Z44	X45	Y45	Z45	X46	Y46	Z46	X47	Y47	Z47	X48	Y48	Z48	X49	Y49	Z49	X50	Y50	Z50	X51	Y51	Z51	

23	0.22000000	151.45549	472.65620	-50.65370	197.50388	362.65335	-73.78649	137.98622	87.62194	-104.70996	88.21335	56.01086	-154.41281	254.10251	37.63280	-82.09844	290.37958	56.11299	-126.66777	90.16099	439.97160	-350.79300	45.42353	336.92886	-308.99709	-237.86796	247.09618	-314.85719	-277.82862	279.90967	-264.81301	-254.81573	110.12798	-314.45077	-214.24030	87.36940	-266.40489	192.54314	251.41198	-93.70106	142.12034	352.67362	-21.31912	120.53144	244.86868	-49.61307	27.41060	392.87569	-373.57322	-76.54976	331.87056	-379.35742	206.67029	782.62240	-50.60088	224.08839	671.98579	-53.02675	182.50199	641.84904	-8.34165	108.72226	764.39974	-3.67884	126.08248	651.63396	-3.27924	159.13279	727.79404	-365.15173	176.90066	592.00747	-366.16414	50.84501	719.26034	-389.48059	67.80865	579.04462	-377.12669	203.93007	930.50971	-85.72864	20.18805	980.06290	-155.46631	200.63887	909.23370	-326.36352	18.38297	972.53653	-271.15593	98.08660	1402.62946	-78.24604	107.47389	1308.43056	54.90658	195.81936	1418.08320	-219.02975	204.88230	1317.46915	-58.54300	217.63285	1332.57357	-98.62342	82.15162	1171.83922	86.77516	-7.34371	1014.94916	-24.70083	-22.89166	1011.84882	48.00716	-12.79582	884.62924	72.97433	-2.01055	780.52090	77.14370	-41.32590	782.53894	69.53468	216.41703	1295.55139	-324.51748	100.67739	1126.26856	-373.52022	147.69764	1148.23452	-424.03250	212.70497	1064.22758	-429.14987	256.93822	941.82509	-413.97627	243.27622	936.04049	-443.68364	106.94351	863.94633	-103.81307	109.85855	843.92427	-292.10613	126.42066	861.60919	-113.85035	123.93786	851.25894	-272.94905	
24	0.23000000	155.16849	472.90070	-50.81954	200.13157	362.43942	-73.84174	138.10822	88.02145	-104.95204	88.29756	56.08359	-154.50346	254.16976	37.57661	-82.08537	290.61066	55.93696	-126.62154	109.57170	440.74200	-350.55824	64.96294	337.47704	-308.76418	-217.79025	247.86344	-315.65038	-259.32653	278.77140	-264.85025	-231.24207	111.02078	-318.52329	-189.89500	88.17384	-271.06461	194.24882	251.24518	-93.81579	144.51330	352.90157	-21.54008	122.08399	245.30195	-49.94340	47.47535	393.64349	-373.35172	-56.43955	332.54710	-379.64252	213.76643	782.43113	-50.54439	230.12864	671.64681	-52.96782	188.03859	641.90386	-8.40289	115.52161	765.20732	-3.69203	131.75193	652.21885	-3.38082	170.97617	729.83721	-365.00965	192.31744	594.60658	-366.12596	63.07844	718.52687	-390.04796	83.58674	578.81210	-377.38657	212.08071	931.32344	-85.35866	28.27726	980.74991	-155.45769	208.82583	910.81856	-326.01064	26.43628	973.25074	-271.20396	106.67139	1403.11756	-76.87216	116.42838	1308.70799	56.09004	203.51577	1418.87301	-218.17105	213.42753	1317.78591	-57.68453	226.05967	1333.04136	-97.79265	91.85617	1171.77586	87.66915	2.70291	1014.64784	-23.81982	-12.51563	1011.28869	48.97217	-1.46916	884.10355	73.56185	9.69164	780.16885	77.49214	-29.38534	781.82526	69.96819	223.59683	1296.52773	-324.05971	108.30587	1126.55574	-371.78932	154.44070	1149.03561	-422.99701	220.28961	1065.75301	-428.65516	266.06050	944.06480	-413.70190	252.26076	937.96762	-443.24844	115.15231	864.64788	-103.83652	118.35620	845.05762	-292.17084	134.67140	862.74551	-113.49676	132.14090	852.43964	-272.56397	
25	0.24000000	158.84922	473.12419	-51.03443	202.67370	362.22526	-73.91361	138.31670	88.38666	-105.29449	88.41827	56.15053	-154.66331	254.23431	37.55064	-82.11133	290.83100	55.77748	-126.60801	129.03209	441.74751	-350.05398	84.87412	338.21557	-308.30448	-197.20915	247.93801	-316.35910	-240.48933	276.52985	-264.79430	-206.31025	111.44558	-322.89422	-164.02281	88.65988	-276.04268	195.90961	251.07382	-93.96209	146.84301	353.12335	-21.76786	123.61137	245.73315	-50.28552	67.67633	394.52745	-372.87680	-36.00360	333.04194	-379.74430	220.86552	782.18966	-50.61871	236.21375	671.26078	-53.11027	193.64034	641.90774	-8.52272	122.36970	765.96070	-3.68549	137.49911	652.76102	-3.50960	182.78151	731.96333	-364.85169	207.72205	597.38907	-365.93066	75.24013	717.91575	-390.47789	99.39957	578.75409	-377.49796	220.20863	932.04909	-85.01202	36.30259	981.40687	-155.38521	216.91761	912.31822	-325.63598	34.40373	973.97014	-271.21192	115.05474	1403.63265	-75.68704	125.21288	1309.12052	57.14870	211.04475	1419.60049	-217.51592	221.79645	1318.20630	-56.95797	234.27114	1333.56659	-97.11852	101.33390	1171.88397	88.53291	12.66076	1014.41746	-22.91282	-2.20922	1010.82544	49.95633	9.91317	883.69130	74.21608	21.43541	780.02394	77.94005	-17.26586	781.18208	70.46915	230.58016	1297.34118	-323.70670	115.75356	1126.63817	-369.92392	160.94522	1149.59991	-421.89716	227.58268	1067.00784	-428.15518	274.84711	946.04793	-413.60544	260.88601	939.66137	-442.97705	123.29397	865.29550	-103.83889	126.72978	846.14796	-292.21536	142.86712	863.78949	-113.16347	140.25993	853.57991	-272.17430	
26	0.25000000	162.46382	473.31409	-51.26955	205.15049	362.00943	-73.99636	138.65444	88.67621	-105.73765	88.58196	56.21437	-154.91824	254.30561	37.55048	-82.16142	291.03844	55.62006	-126.62364	148.50391	443.02332	-349.29164	105.14746	339.17129	-307.65911	-176.11586	247.26755	-317.00027	-221.22509	273.16945	-264.70575	-180.10794	111.46515	-327.47561	-136.76968	88.88883	-281.21153	197.54059	250.89889	-94.13594	149.13408	353.33873	-21.99666	125.12398	246.15632	-50.63092	87.96172	395.55675	-372.18202	-15.27113	333.35767	-379.69334	227.97606	781.88287	-50.78276	242.32384	670.80645	-53.38536	199.26290	641.85222	-8.69362	129.24307	766.65489	-3.64934	143.30702	653.26316	-3.65164	194.53412	734.17230	-364.68866	223.10192	600.36154	-365.57784	87.34642	717.38792	-390.75992	115.25615	578.85618	-377.46938	228.32301	932.67593	-84.71096	44.27854	982.03512	-155.22000	224.91395	913.72067	-325.26208	42.28396	974.68260	-271.14700	123.25436	1404.18221	-74.69143	133.85349	1309.66660	58.07622	218.43613	1420.25941	-217.06543	230.01370	1318.72928	-56.37393	242.29366	1334.13890	-96.60964	110.59931	1172.17222	89.36309	22.52222	1014.26907	-21.99018	8.02121	1010.47171	50.95382	21.33687	883.40318	74.92954	33.28019	780.08396	78.45035	-4.97545	780.61784	71.03868	237.38032	1298.00211	-323.47499	123.01350	1126.56444	-368.02171	167.22328	1149.96248	-420.78907	234.59738	1068.02589	-427.67200	283.30169	947.79801	-413.65951	269.16434	941.15595	-442.85336	131.38903	865.88002	-103.81627	134.96798	847.18745	-292.23635	151.01827	864.74885	-112.85576	148.28385	854.66861	-271.78419	
